<?xml version="1.0" encoding="UTF-8"?>
<!DOCTYPE svg  PUBLIC '-//W3C//DTD SVG 1.1//EN'  'http://www.w3.org/Graphics/SVG/1.1/DTD/svg11.dtd'>
<svg enable-background="new 0 0 800 800" version="1.1" viewBox="0 0 800 800" xml:space="preserve" xmlns="http://www.w3.org/2000/svg">
	<path d="m484.5 373.1v51.9c-2.4 3-5.1 5.6-8.2 7.9-5.1 3.7-11.1 6.3-17.6 7.4h-13.7c-6.5-1-12.5-3.7-17.6-7.4-3.1-2.3-5.8-4.9-8.2-7.9v-51.9c2.4-3 5.1-5.6 8.2-7.9 5.1-3.7 11.1-6.3 17.6-7.4h13.7c6.5 1 12.5 3.7 17.6 7.4 3 2.3 5.8 4.9 8.2 7.9z" fill="#fff"/>
	<path d="m493.5 399c0 9.8-3.4 18.7-9 25.9-2.4 3-5.1 5.6-8.2 7.9v-67.5c3.1 2.3 5.8 4.9 8.2 7.9 5.7 7.1 9 16 9 25.8z" fill="#E10108"/>
	<path d="m427.3 365.2v67.5c-3.1-2.3-5.8-4.9-8.2-7.9-5.6-7.1-9-16.1-9-25.9s3.4-18.7 9-25.9c2.4-2.9 5.1-5.5 8.2-7.8z" fill="#E10108"/>
	<path d="m474.3 403.4l-3.5-3 2.6-8.2-8.1 0.9-0.9-4.6-5.9 7.8c-0.1 0.1-0.2 0-0.2-0.1l2.3-16.7-4.8 3.4-3.9-8-3.9 8-4.8-3.4 2.3 16.7c0 0.1-0.1 0.2-0.2 0.1l-5.9-7.8-0.9 4.6-8.1-0.9 2.6 8.2-3.5 3 12.8 9.9s0.1 0.1 0 0.2l-2.3 5.7c6.7-3.1 11.3-1.7 11.3-1.7l-0.7 7h2.8l-0.7-7s4.7-1.4 11.3 1.7l-2.3-5.7v-0.2l12.6-9.9z" fill="#E10108"/>
		<radialGradient id="ai" cx="395.3" cy="500.86" r="36.55" gradientTransform="matrix(1.1429 0 0 -1.1429 -3.0518e-5 971.43)" gradientUnits="userSpaceOnUse">
		<stop stop-color="#fff" offset=".9677"/>
		<stop stop-color="#ED1C24" offset="1"/>
	</radialGradient>
	<path d="m484.5 373.1c-2.4-3-5.1-5.6-8.2-7.9-5.1-3.7-11.1-6.3-17.6-7.4-2.3-0.3-4.6-0.6-6.9-0.6s-4.6 0.2-6.9 0.6c-6.5 1-12.5 3.7-17.6 7.4-3.1 2.3-5.8 4.9-8.2 7.9-5.6 7.1-9 16.1-9 25.9s3.4 18.7 9 25.9c2.4 3 5.1 5.6 8.2 7.9 5.1 3.7 11.1 6.3 17.6 7.4 2.3 0.3 4.6 0.6 6.9 0.6s4.7-0.2 6.9-0.6c6.5-1 12.5-3.7 17.6-7.4 3.1-2.3 5.8-4.9 8.2-7.9 5.6-7.1 9-16.1 9-25.9s-3.3-18.7-9-25.9zm-8.3 56.5c-6.7 5.4-15.2 8.6-24.5 8.6s-17.7-3.2-24.5-8.6c-3.2-2.5-5.9-5.6-8.2-9-4.1-6.2-6.5-13.7-6.5-21.7s2.4-15.5 6.5-21.7c2.3-3.4 5-6.4 8.2-9 6.7-5.4 15.2-8.6 24.5-8.6s17.7 3.2 24.5 8.6c3.2 2.5 5.9 5.6 8.2 9 4.1 6.2 6.5 13.7 6.5 21.7s-2.4 15.4-6.5 21.7c-2.2 3.6-5 6.5-8.2 9z" fill="url(#ai)"/>
		<path d="m376.7 368.6h-57.1c0.8-0.8 1.7-1.5 2.6-2.3 0.5-0.3 0.8-0.7 1.3-1 2.1-1.5 4.2-2.9 6.6-4 0.2-0.1 0.6-0.2 0.8-0.3 0.9-0.3 1.7-0.8 2.6-1.1h29.3c1 0.3 1.9 0.8 2.9 1.3 2.5 1.1 4.9 2.6 7.2 4.2 1.3 0.9 2.6 2 3.8 3.2z" fill="#0D5EAF"/>
		<path d="m387.8 385.9h-79.3c1-3.1 2.4-5.9 4-8.7h71.3c1.7 2.8 3.1 5.6 4 8.7z" fill="#0D5EAF"/>
		<path d="m389.7 394.6h-83.1c0.3-3 0.9-5.9 1.8-8.7h79.3c1 2.8 1.7 5.7 2 8.7z" fill="#fff"/>
		<path d="m383.8 377.2h-71.3c1.9-3.2 4.3-6.2 7.1-8.7h57.1c2.7 2.6 5.1 5.5 7.1 8.7z" fill="#fff"/>
		<path d="m389.9 399c0 1.5-0.1 3-0.2 4.3h-83.1c-0.1-1.4-0.2-2.9-0.2-4.3 0-1.5 0.1-3 0.2-4.3h83.1c0.1 1.3 0.2 2.8 0.2 4.3z" fill="#0D5EAF"/>
		<path d="m389.7 403.3c-0.3 3-0.9 5.9-1.8 8.7h-79.3c-0.9-2.7-1.6-5.7-1.8-8.7h82.9z" fill="#fff"/>
		<path d="m387.8 412c-1 3.1-2.4 5.9-4 8.7h-71.3c-1.7-2.7-3-5.6-4-8.7h79.3z" fill="#0D5EAF"/>
		<path d="m383.8 420.7c-1.9 3.2-4.3 6.2-7.1 8.7h-57.1c-2.7-2.5-5.1-5.5-7.1-8.7h71.3z" fill="#fff"/>
		<path d="m376.7 429.4c-1.3 1.1-2.5 2.3-3.9 3.2-2.3 1.6-4.7 3.1-7.2 4.2-0.9 0.5-1.9 0.8-2.9 1.3h-29.3c-1.1-0.5-2.4-0.9-3.5-1.5-2.3-1.1-4.6-2.4-6.6-4-1.4-1-2.6-2.1-3.9-3.2h57.3z" fill="#0D5EAF"/>
		<path d="m351.7 359.9v43.4h-44.9c-0.1-1.4-0.2-2.9-0.2-4.3 0-1.5 0.1-3 0.2-4.3 0.3-3 0.9-5.9 1.8-8.7 1-3.1 2.4-5.9 4-8.7 1.9-3.2 4.3-6.2 7.1-8.7 0.8-0.8 1.7-1.5 2.6-2.3 0.5-0.3 0.8-0.7 1.3-1 2.1-1.5 4.2-2.9 6.6-4 0.2-0.1 0.6-0.2 0.8-0.3 0.9-0.3 1.7-0.8 2.6-1.1h18.1z" fill="#0D5EAF"/>
		<path d="m351.9 377.2v8.7h-43.3c1-3.1 2.4-5.9 4-8.7h39.3z" fill="#fff"/>
		<path d="m330.9 361v42.3h-8.7v-37c0.5-0.3 0.8-0.7 1.3-1 2.1-1.5 4.2-2.9 6.6-4 0.2-0.1 0.5-0.2 0.8-0.3z" fill="#fff"/>
		<radialGradient id="ao" cx="304.64" cy="500.86" r="36.553" gradientTransform="matrix(1.1429 0 0 -1.1429 -3.0518e-5 971.43)" gradientUnits="userSpaceOnUse">
		<stop stop-color="#fff" offset=".9677"/>
		<stop stop-color="#ED1C24" offset="1"/>
	</radialGradient>
	<path d="m389.7 394.6c-0.3-3-0.9-5.9-1.8-8.7-1-3.1-2.4-5.9-4-8.7-1.9-3.2-4.3-6.2-7.1-8.7-1.3-1.1-2.5-2.3-3.9-3.2-2.3-1.6-4.7-3.1-7.2-4.2-0.9-0.5-1.9-0.8-2.9-1.3-4.6-1.7-9.5-2.6-14.6-2.6s-10.1 0.9-14.6 2.6c-0.9 0.3-1.8 0.7-2.6 1.1-0.2 0.1-0.6 0.2-0.8 0.3-2.3 1.1-4.6 2.4-6.6 4-0.5 0.3-0.8 0.7-1.3 1-0.9 0.7-1.7 1.5-2.6 2.3-2.7 2.5-5.1 5.5-7.1 8.7-1.7 2.7-3 5.6-4 8.7-0.9 2.7-1.6 5.7-1.8 8.7-0.1 1.4-0.2 2.9-0.2 4.3 0 1.5 0.1 3 0.2 4.3 0.3 3 0.9 5.9 1.8 8.7 1 3.1 2.4 5.9 4 8.7 1.9 3.2 4.3 6.2 7.1 8.7 1.3 1.1 2.5 2.3 3.9 3.2 2.1 1.5 4.2 2.9 6.6 4 1.1 0.6 2.3 1 3.5 1.5 4.6 1.7 9.5 2.6 14.6 2.6s10.1-0.9 14.6-2.6c1-0.3 1.9-0.8 2.9-1.3 2.5-1.1 4.9-2.6 7.2-4.2 1.4-1 2.6-2.1 3.9-3.2 2.7-2.5 5.1-5.5 7.1-8.7 1.7-2.7 3-5.6 4-8.7 0.9-2.7 1.6-5.7 1.8-8.7 0.1-1.4 0.2-2.9 0.2-4.3-0.1-1.4-0.2-2.9-0.3-4.3zm-4.4 17.4c-1.1 3.1-2.5 6.1-4.3 8.7-2.2 3.3-4.8 6.2-7.9 8.7l-0.1 0.1c-2.2 1.8-4.6 3.3-7.2 4.7-4.2 2.2-8.9 3.5-13.8 4-1.3 0.1-2.5 0.2-3.8 0.2s-2.5-0.1-3.8-0.2c-5.1-0.5-9.9-1.9-14.3-4.2-2.4-1.3-4.6-2.6-6.6-4.3l-0.1-0.1c-3.1-2.5-5.7-5.4-7.9-8.7-1.8-2.6-3.2-5.6-4.3-8.7-1-2.7-1.6-5.7-1.9-8.7-0.1-1.4-0.2-2.9-0.2-4.3 0-1.5 0.1-3 0.2-4.3 0.3-3 1-5.9 1.9-8.7 1.1-3.1 2.5-6.1 4.3-8.7 1.9-2.9 4.1-5.5 6.7-7.8 0.3-0.3 0.8-0.7 1.1-1l0.1-0.1c2.1-1.6 4.2-3.1 6.6-4.3 0.2-0.1 0.6-0.2 0.8-0.5 4.1-2.1 8.7-3.4 13.5-3.9 1.3-0.1 2.5-0.2 3.8-0.2s2.5 0.1 3.8 0.2c4.9 0.5 9.6 1.8 13.8 4 2.5 1.3 5 2.9 7.2 4.7l0.1 0.1c3.1 2.5 5.7 5.4 7.9 8.7 1.8 2.6 3.2 5.6 4.3 8.7 1 2.7 1.6 5.7 1.9 8.7 0.1 1.4 0.2 2.9 0.2 4.3 0 1.5-0.1 3-0.2 4.3-0.2 2.9-0.9 5.8-1.8 8.6z" fill="url(#ao)"/>
	<path d="m580 365.4v67.3c-2.3 1.6-4.7 3.1-7.2 4.2-5.4 2.5-11.3 3.9-17.5 3.9-6.5 0-12.7-1.5-18.2-4.1-2.3-1.1-4.6-2.4-6.6-4v-67.3c2.1-1.5 4.2-2.9 6.6-4 5.5-2.6 11.7-4.1 18.2-4.1 6.3 0 12.2 1.4 17.5 3.9 2.5 1.1 4.9 2.4 7.2 4.2z" fill="#fff"/>
	<path d="m537.1 361.4v75.2c-2.3-1.1-4.6-2.4-6.6-4-10.3-7.7-17-19.9-17-33.6 0-13.8 6.7-26.1 17-33.6 2.1-1.6 4.4-2.9 6.6-4z" fill="#007403"/>
	<path d="m597 399c0 13.8-6.7 26.1-17 33.6-2.3 1.6-4.7 3.1-7.2 4.2v-75.8c2.5 1.1 4.9 2.6 7.2 4.2 10.3 7.7 17 19.9 17 33.8z" fill="#E10108"/>
		<radialGradient id="ap" cx="485.85" cy="500.91" r="36.525" gradientTransform="matrix(1.1429 0 0 -1.1429 -3.0518e-5 971.43)" gradientUnits="userSpaceOnUse">
		<stop stop-color="#fff" offset=".9677"/>
		<stop stop-color="#ED1C24" offset="1"/>
	</radialGradient>
	<path d="m580 365.4c-2.3-1.6-4.7-3.1-7.2-4.2-5.4-2.5-11.3-3.9-17.5-3.9-6.5 0-12.7 1.5-18.2 4.1-2.3 1.1-4.6 2.4-6.6 4-10.3 7.7-17 19.9-17 33.6 0 13.8 6.7 26.1 17 33.6 2.1 1.5 4.2 2.9 6.6 4 5.5 2.6 11.7 4.1 18.2 4.1 6.3 0 12.2-1.4 17.5-3.9 2.5-1.1 4.9-2.6 7.2-4.2 10.3-7.7 17-19.9 17-33.6 0-13.9-6.7-26.1-17-33.6zm0 64.1c-2.2 1.8-4.6 3.3-7.2 4.7-5.3 2.6-11.2 4.1-17.5 4.1-6.5 0-12.7-1.6-18.2-4.5-2.4-1.3-4.6-2.6-6.6-4.3-8.9-7.2-14.5-18.2-14.5-30.5s5.7-23.3 14.5-30.5c2.1-1.6 4.2-3.1 6.6-4.3 5.4-2.9 11.5-4.5 18.2-4.5 6.3 0 12.2 1.5 17.5 4.1 2.5 1.3 5 2.9 7.2 4.7 8.9 7.2 14.5 18.2 14.5 30.5s-5.7 23.3-14.5 30.5z" fill="url(#ap)"/>
	<path d="m270.3 366v65.9c-2.5 1.9-5.4 3.7-8.3 5-2.9 1.4-5.9 2.3-9.1 3h-16.1c-3.2-0.6-6.3-1.6-9.1-3-3-1.4-5.8-3.1-8.3-5v-65.9c2.5-1.9 5.4-3.7 8.3-5 2.9-1.4 5.9-2.3 9.1-3h16.1c3.2 0.6 6.3 1.6 9.1 3 2.9 1.3 5.7 3 8.3 5z" fill="#fff"/>
	<path d="m227.4 361v76c-3-1.4-5.8-3.1-8.3-5-9.8-7.7-16.1-19.5-16.1-33 0-13.4 6.3-25.4 16.1-33 2.5-2 5.4-3.7 8.3-5z" fill="#010F5C"/>
	<path d="m286.4 399c0 13.4-6.3 25.4-16.1 33-2.5 1.9-5.4 3.7-8.3 5v-76c3 1.4 5.8 3.1 8.3 5 9.8 7.6 16.1 19.6 16.1 33z" fill="#E10108"/>
		<radialGradient id="aq" cx="214.1" cy="500.86" r="36.55" gradientTransform="matrix(1.1429 0 0 -1.1429 -3.0518e-5 971.43)" gradientUnits="userSpaceOnUse">
		<stop stop-color="#fff" offset=".9677"/>
		<stop stop-color="#ED1C24" offset="1"/>
	</radialGradient>
	<path d="m270.3 366c-2.5-1.9-5.4-3.7-8.3-5-2.9-1.4-5.9-2.3-9.1-3-2.6-0.5-5.3-0.8-8.1-0.8s-5.5 0.2-8.1 0.8c-3.2 0.6-6.3 1.6-9.1 3-3 1.4-5.8 3.1-8.3 5-9.8 7.7-16.1 19.5-16.1 33 0 13.4 6.3 25.4 16.1 33 2.5 1.9 5.4 3.7 8.3 5 2.9 1.4 5.9 2.3 9.1 3 2.6 0.5 5.3 0.8 8.1 0.8s5.5-0.2 8.1-0.8c3.2-0.6 6.3-1.6 9.1-3 3-1.4 5.8-3.1 8.3-5 9.8-7.7 16.1-19.5 16.1-33 0-13.4-6.3-25.4-16.1-33zm0 62.7c-2.5 2.2-5.4 4-8.3 5.5-5.3 2.5-11.1 4-17.3 4s-12-1.5-17.3-4c-3-1.5-5.8-3.3-8.3-5.5-8.3-7.2-13.7-17.9-13.7-29.8s5.4-22.6 13.7-29.8c2.5-2.2 5.4-4 8.3-5.5 5.3-2.5 11.1-4 17.3-4s12 1.5 17.3 4c3 1.5 5.8 3.3 8.3 5.5 8.3 7.2 13.7 17.9 13.7 29.8-0.1 12-5.4 22.6-13.7 29.8z" fill="url(#aq)"/>
	<path d="m579.4 262.7c-0.7-0.6-1.5-1-2.3-1.5h-5.3c-5-2.4-10.6-3.7-16.6-3.7s-11.5 1.4-16.6 3.7h-5.3c-0.8 0.5-1.5 1-2.3 1.5-7.5 5.4-13.3 13.1-16 22.2v23.9c5.1 17.3 21.1 29.8 40 29.8 23 0 41.7-18.7 41.7-41.7 0.4-14.1-6.5-26.6-17.3-34.2z" fill="#C50000"/>
	<polygon points="532 271.5 534.3 278.4 541.5 278.4 535.7 282.6 537.8 289.5 532 285.2 526.2 289.5 528.5 282.6 522.6 278.4 529.8 278.4" fill="#FFDE17"/>
	<polygon points="547.7 266 547.5 268.6 549.9 269.4 547.5 270 547.4 272.4 546.1 270.4 543.8 271.1 545.3 269.1 543.9 267.2 546.2 268" fill="#FFDE17"/>
	<polygon points="554.1 275 552.7 277 554.3 278.8 551.9 278.3 550.6 280.3 550.4 277.9 548.1 277.2 550.4 276.3 550.2 273.9 551.8 275.9" fill="#FFDE17"/>
	<polygon points="550.4 283.8 551.1 286.2 553.6 286.2 551.5 287.5 552.2 289.9 550.3 288.4 548.3 289.8 549.1 287.5 547.2 286 549.6 286" fill="#FFDE17"/>
	<polygon points="545.9 292 545.8 294.5 548.2 295.2 545.8 296 545.8 298.4 544.5 296.4 542.1 297.1 543.5 295.2 542.2 293.2 544.5 294" fill="#FFDE17"/>
		<radialGradient id="ar" cx="486" cy="590.21" r="36.54" gradientTransform="matrix(1.1429 0 0 -1.1429 -3.0518e-5 971.43)" gradientUnits="userSpaceOnUse">
		<stop stop-color="#fff" offset=".9677"/>
		<stop stop-color="#ED1C24" offset="1"/>
	</radialGradient>
	<path d="m579.4 262.7c-0.7-0.6-1.5-1-2.3-1.5-6.3-3.9-13.8-6.2-21.8-6.2s-15.4 2.3-21.8 6.2c-0.8 0.5-1.5 1-2.3 1.5-7.5 5.4-13.3 13.1-16 22.2-1.1 3.8-1.7 7.8-1.7 12 0 4.1 0.6 8.1 1.7 12 5.1 17.3 21.1 29.8 40 29.8 23 0 41.7-18.7 41.7-41.7 0.2-14.2-6.7-26.7-17.5-34.3zm-24 73.4c-21.6 0-39.3-17.6-39.3-39.3 0-14.6 8-27.3 19.9-34.1 0.9-0.6 1.9-1 2.9-1.5 5-2.4 10.6-3.7 16.6-3.7s11.5 1.4 16.6 3.7c1 0.5 1.9 0.9 2.9 1.5 11.9 6.7 19.9 19.5 19.9 34.1-0.2 21.7-17.9 39.3-39.5 39.3z" fill="url(#ar)"/>
		<path d="m284.3 283.3h-79c0-0.1 0.1-0.2 0.1-0.2 5.1-14.5 18.1-25.4 33.7-27.5h11.2c15.7 2.1 28.7 12.9 33.7 27.5 0.2 0 0.2 0.1 0.3 0.2z" fill="#fff"/>
		<path d="m286.5 296.9c0 4.8-0.8 9.4-2.3 13.6 0 0.1-0.1 0.2-0.1 0.2h-78.6c0-0.1-0.1-0.2-0.1-0.2-1.5-4.2-2.3-8.8-2.3-13.6s0.8-9.4 2.3-13.6c0-0.1 0.1-0.2 0.1-0.2h78.7c0 0.1 0.1 0.2 0.1 0.2 1.4 4.2 2.2 8.8 2.2 13.6z" fill="#011FA7"/>
		<path d="m284.3 310.5c0 0.1-0.1 0.2-0.1 0.2-5.1 14.5-18.1 25.4-33.7 27.5h-11.2c-15.7-2.1-28.7-12.9-33.7-27.5 0-0.1-0.1-0.2-0.1-0.2h78.8z" fill="#C50000"/>
		<radialGradient id="as" cx="214.22" cy="590.21" r="36.538" gradientTransform="matrix(1.1429 0 0 -1.1429 -3.0518e-5 971.43)" gradientUnits="userSpaceOnUse">
		<stop stop-color="#fff" offset=".9677"/>
		<stop stop-color="#ED1C24" offset="1"/>
	</radialGradient>
	<path d="m284.3 283.3c0-0.1-0.1-0.2-0.1-0.2-5.1-14.5-18.1-25.4-33.7-27.5-1.8-0.2-3.7-0.3-5.6-0.3s-3.8 0.1-5.6 0.3c-15.7 2.1-28.7 12.9-33.7 27.5 0 0.1-0.1 0.2-0.1 0.2-1.5 4.2-2.3 8.8-2.3 13.6s0.8 9.4 2.3 13.6c0 0.1 0.1 0.2 0.1 0.2 5.1 14.5 18.1 25.4 33.7 27.5 1.8 0.2 3.7 0.3 5.6 0.3s3.8-0.1 5.6-0.3c15.7-2.1 28.7-12.9 33.7-27.5 0-0.1 0.1-0.2 0.1-0.2 1.5-4.2 2.3-8.8 2.3-13.6-0.1-4.8-0.9-9.4-2.3-13.6zm-2.7 27.4c-5.6 14.9-20 25.4-36.7 25.4-16.8 0-31.1-10.6-36.7-25.4 0-0.1-0.1-0.2-0.1-0.2-1.6-4.2-2.4-8.8-2.4-13.6s0.8-9.4 2.4-13.6c0-0.1 0.1-0.2 0.1-0.2 5.6-14.9 20-25.4 36.7-25.4 16.8 0 31.1 10.6 36.7 25.4 0 0.1 0.1 0.2 0.1 0.2 1.6 4.2 2.4 8.8 2.4 13.6s-0.8 9.4-2.4 13.6c-0.1 0.1-0.1 0.1-0.1 0.2z" fill="url(#as)"/>
		<path d="m489.9 283.3h-76.2c0-0.1 0.1-0.2 0.1-0.2 5.7-15.5 20.6-26.6 38.1-26.6s32.5 11.1 38.1 26.6c-0.1 0-0.1 0.1-0.1 0.2z"/>
		<path d="m492.3 296.9c0 4.8-0.8 9.4-2.4 13.6 0 0.1-0.1 0.2-0.1 0.2h-76.1c0-0.1-0.1-0.2-0.1-0.2-1.5-4.2-2.4-8.8-2.4-13.6s0.8-9.4 2.4-13.6c0-0.1 0.1-0.2 0.1-0.2h76.1c0 0.1 0.1 0.2 0.1 0.2 1.6 4.2 2.4 8.8 2.4 13.6z" fill="#ED1C24"/>
		<path d="m489.9 310.5c0 0.1-0.1 0.2-0.1 0.2-5.7 15.5-20.6 26.6-38.1 26.6s-32.5-11.1-38.1-26.6c0-0.1-0.1-0.2-0.1-0.2h76.4z" fill="#FFDE17"/>
	<path d="m492.3 296.9c0 4.8-0.8 9.4-2.4 13.6 0 0.1-0.1 0.2-0.1 0.2-5.7 15.5-20.6 26.6-38.1 26.6s-32.5-11.1-38.1-26.6c0-0.1-0.1-0.2-0.1-0.2-1.5-4.2-2.4-8.8-2.4-13.6s0.8-9.4 2.4-13.6c0-0.1 0.1-0.2 0.1-0.2 5.7-15.5 20.6-26.6 38.1-26.6s32.5 11.1 38.1 26.6c0 0.1 0.1 0.2 0.1 0.2 1.6 4.2 2.4 8.8 2.4 13.6z" fill="none"/>
		<radialGradient id="at" cx="395.3" cy="590.21" r="36.558" gradientTransform="matrix(1.1429 0 0 -1.1429 -3.0518e-5 971.43)" gradientUnits="userSpaceOnUse">
		<stop stop-color="#fff" offset=".9677"/>
		<stop stop-color="#ED1C24" offset="1"/>
	</radialGradient>
	<path d="m451.8 338.6c-23 0-41.7-18.7-41.7-41.7s18.7-41.7 41.7-41.7 41.7 18.7 41.7 41.7c0.1 23-18.6 41.7-41.7 41.7zm0-81c-21.6 0-39.3 17.6-39.3 39.3s17.6 39.3 39.3 39.3c21.6 0 39.3-17.6 39.3-39.3s-17.6-39.3-39.3-39.3z" fill="url(#at)"/>
		<path d="m385.5 313c-0.9 2.2-2.2 4.3-3.4 6.3h-67.4c-1.4-1.9-2.5-4.1-3.4-6.3h74.2z" fill="#fff"/>
		<path d="m382.1 319.3c-1.5 2.3-3.3 4.3-5.3 6.3h-56.9c-1.9-1.9-3.7-4-5.3-6.3h67.5z" fill="#ED1C24"/>
		<path d="m376.8 325.7c-2.5 2.4-5.3 4.6-8.2 6.3h-40.5c-3.1-1.7-5.8-3.9-8.2-6.3h56.9z" fill="#fff"/>
		<path d="m368.6 332c-5.9 3.4-12.9 5.4-20.2 5.4s-14.3-1.9-20.2-5.4h40.4z" fill="#ED1C24"/>
		<path d="m369.9 262.6h-26.1v-5.9c1.5-0.1 3-0.2 4.5-0.2 0.7 0 1.5 0 2.2 0.1h1c6.6 0.4 13 2.6 18.4 6z" fill="#ED1C24"/>
		<path d="m377.6 268.9h-33.7v-6.3h26.1c2.7 1.7 5.3 3.9 7.6 6.3z" fill="#fff"/>
		<path d="m382.5 275.2h-38.6v-6.3h33.8c1.7 1.9 3.4 4 4.8 6.3z" fill="#ED1C24"/>
		<path d="m385.8 281.5h-41.9v-6.3h38.7c1.2 2 2.3 4.1 3.2 6.3z" fill="#fff"/>
		<path d="m387.8 287.9h-43.9v-6.3h41.9c0.8 1.9 1.5 4 2 6.3z" fill="#ED1C24"/>
		<path d="m388.7 294.2h-44.8v-6.3h44c0.3 1.9 0.7 4.1 0.8 6.3z" fill="#fff"/>
		<path d="m388.8 296.9c0 1.3 0 2.4-0.1 3.5h-44.8v-6.3h44.9v2.8z" fill="#ED1C24"/>
		<path d="M388.7,300.4c-0.2,2.2-0.6,4.2-1,6.3H309c-0.5-2.1-0.9-4.1-1-6.3H388.7z" fill="#fff"/>
		<path d="m387.7 306.7c-0.6 2.2-1.3 4.2-2.2 6.3h-74.3c-0.9-2.1-1.6-4.1-2.2-6.3h78.7z" fill="#ED1C24"/>
				<path d="m350.9 256.4v43.6h-43v-0.5c-0.1-0.9-0.1-1.8-0.1-2.7 0-4.6 0.8-8.9 2.2-13 0.3-1 0.7-1.9 1.1-2.9 4.2-9.8 12.1-17.6 22.1-21.6h0.1c0.5-0.2 1-0.3 1.5-0.6 0.1-0.1 0.3-0.1 0.6-0.2 2.7-0.9 5.6-1.6 8.6-1.9 1.5-0.1 3-0.2 4.5-0.2 0.7 0 1.5 0 2.2 0.1-0.1-0.1 0-0.1 0.2-0.1z" fill="#000058"/>
				<path d="m350.9 256.4h-0.5v43.1h-42.6v1h43.3v-43.9c0.1-0.2 0-0.2-0.2-0.2z"/>
		<g fill="#fff">
				<path d="m335.8 260.2l0.5 1.5-1.3-0.9-1.3 0.9 0.5-1.5-1.1-0.8h1.5l0.2-0.6c0.1-0.1 0.3-0.1 0.6-0.2l0.2 0.8h1.6l-1.4 0.8z"/>
				<polygon points="344.8 257.8 345.4 259.3 346.9 259.3 345.6 260.2 346.1 261.6 344.8 260.7 343.7 261.6 344.1 260.2 342.9 259.3 344.3 259.3"/>
				<polygon points="325.3 266.8 325.7 268.3 327.3 268.3 326.1 269.2 326.5 270.7 325.3 269.8 324 270.7 324.5 269.2 323.2 268.3 324.8 268.3"/>
				<polygon points="335.1 266.8 335.5 268.3 337 268.3 335.8 269.2 336.3 270.7 335.1 269.8 333.8 270.7 334.3 269.2 333 268.3 334.6 268.3"/>
				<polygon points="344.8 266.8 345.4 268.3 346.9 268.3 345.6 269.2 346.1 270.7 344.8 269.8 343.7 270.7 344.1 269.2 342.9 268.3 344.3 268.3"/>
				<polygon points="315.4 276 315.9 277.5 317.5 277.5 316.2 278.4 316.7 279.9 315.4 279 314.2 279.9 314.6 278.4 313.5 277.5 315 277.5"/>
				<polygon points="325.3 276 325.7 277.5 327.3 277.5 326.1 278.4 326.5 279.9 325.3 279 324 279.9 324.5 278.4 323.2 277.5 324.8 277.5"/>
				<polygon points="335.1 276 335.5 277.5 337 277.5 335.8 278.4 336.3 279.9 335.1 279 333.8 279.9 334.3 278.4 333 277.5 334.6 277.5"/>
				<polygon points="344.8 276 345.4 277.5 346.9 277.5 345.6 278.4 346.1 279.9 344.8 279 343.7 279.9 344.1 278.4 342.9 277.5 344.3 277.5"/>
				<polygon points="315.4 285.1 315.9 286.6 317.5 286.6 316.2 287.5 316.7 288.9 315.4 288 314.2 288.9 314.6 287.5 313.5 286.6 315 286.6"/>
				<polygon points="325.3 285.1 325.7 286.6 327.3 286.6 326.1 287.5 326.5 288.9 325.3 288 324 288.9 324.5 287.5 323.2 286.6 324.8 286.6"/>
				<polygon points="335.1 285.1 335.5 286.6 337 286.6 335.8 287.5 336.3 288.9 335.1 288 333.8 288.9 334.3 287.5 333 286.6 334.6 286.6"/>
				<polygon points="344.8 285.1 345.4 286.6 346.9 286.6 345.6 287.5 346.1 288.9 344.8 288 343.7 288.9 344.1 287.5 342.9 286.6 344.3 286.6"/>
				<polygon points="315.4 294.2 315.9 295.6 317.5 295.6 316.2 296.6 316.7 298 315.4 297.1 314.2 298 314.6 296.6 313.5 295.6 315 295.6"/>
				<polygon points="325.3 294.2 325.7 295.6 327.3 295.6 326.1 296.6 326.5 298 325.3 297.1 324 298 324.5 296.6 323.2 295.6 324.8 295.6"/>
				<polygon points="335.1 294.2 335.5 295.6 337 295.6 335.8 296.6 336.3 298 335.1 297.1 333.8 298 334.3 296.6 333 295.6 334.6 295.6"/>
				<polygon points="344.8 294.2 345.4 295.6 346.9 295.6 345.6 296.6 346.1 298 344.8 297.1 343.7 298 344.1 296.6 342.9 295.6 344.3 295.6"/>
				<polygon points="330.4 262 331 263.5 332.5 263.5 331.2 264.4 331.7 265.9 330.4 265 329.3 265.9 329.7 264.4 328.5 263.5 329.9 263.5"/>
				<polygon points="340.2 262 340.7 263.5 342.3 263.5 341 264.4 341.5 265.9 340.2 265 339 265.9 339.4 264.4 338.3 263.5 339.8 263.5"/>
				<polygon points="320.7 271.2 321.1 272.7 322.6 272.7 321.4 273.5 321.9 275 320.7 274 319.4 275 319.9 273.5 318.6 272.7 320.2 272.7"/>
				<polygon points="330.4 271.2 331 272.7 332.5 272.7 331.2 273.5 331.7 275 330.4 274 329.3 275 329.7 273.5 328.5 272.7 329.9 272.7"/>
				<polygon points="340.2 271.2 340.7 272.7 342.3 272.7 341 273.5 341.5 275 340.2 274 339 275 339.4 273.5 338.3 272.7 339.8 272.7"/>
				<path d="m311.7 282.6l0.5 1.5-1.3-0.9-0.9 0.7c0.3-1 0.7-1.9 1.1-2.9l0.2 0.8h1.5l-1.1 0.8z"/>
				<polygon points="320.7 280.2 321.1 281.7 322.6 281.7 321.4 282.6 321.9 284.1 320.7 283.2 319.4 284.1 319.9 282.6 318.6 281.7 320.2 281.7"/>
				<polygon points="330.4 280.2 331 281.7 332.5 281.7 331.2 282.6 331.7 284.1 330.4 283.2 329.3 284.1 329.7 282.6 328.5 281.7 329.9 281.7"/>
				<polygon points="340.2 280.2 340.7 281.7 342.3 281.7 341 282.6 341.5 284.1 340.2 283.2 339 284.1 339.4 282.6 338.3 281.7 339.8 281.7"/>
				<polygon points="310.9 289.4 311.3 290.8 312.9 290.8 311.7 291.8 312.1 293.2 310.9 292.3 309.6 293.2 310.1 291.8 308.8 290.8 310.4 290.8"/>
				<polygon points="320.7 289.4 321.1 290.8 322.6 290.8 321.4 291.8 321.9 293.2 320.7 292.3 319.4 293.2 319.9 291.8 318.6 290.8 320.2 290.8"/>
				<polygon points="330.4 289.4 331 290.8 332.5 290.8 331.2 291.8 331.7 293.2 330.4 292.3 329.3 293.2 329.7 291.8 328.5 290.8 329.9 290.8"/>
				<polygon points="340.2 289.4 340.7 290.8 342.3 290.8 341 291.8 341.5 293.2 340.2 292.3 339 293.2 339.4 291.8 338.3 290.8 339.8 290.8"/>
		</g>
	<path d="m388.8 296.9c0 1.3 0 2.4-0.1 3.5-0.2 2.2-0.6 4.2-1 6.3-0.6 2.2-1.3 4.2-2.2 6.3-0.9 2.2-2.2 4.3-3.4 6.3-1.5 2.3-3.3 4.3-5.3 6.3-2.5 2.4-5.3 4.6-8.2 6.3-5.9 3.4-12.9 5.4-20.2 5.4s-14.3-1.9-20.2-5.4c-3.1-1.7-5.8-3.9-8.2-6.3-1.9-1.9-3.7-4-5.3-6.3-1.4-1.9-2.5-4.1-3.4-6.3-0.9-2.1-1.6-4.1-2.2-6.3-0.5-2.1-0.9-4.1-1-6.3v-1c-0.1-0.9-0.1-1.8-0.1-2.7 0-4.6 0.8-8.9 2.2-13 0.3-1 0.7-1.9 1.1-2.9 4.2-9.8 12.1-17.6 22.1-21.6h0.1c0.5-0.2 1-0.3 1.5-0.6 0.1-0.1 0.3-0.1 0.6-0.2 2.7-0.9 5.6-1.6 8.6-1.9 1.5-0.1 3-0.2 4.5-0.2 0.7 0 1.5 0 2.2 0.1h1c6.9 0.5 13.1 2.6 18.6 6.2 2.9 1.8 5.4 3.9 7.7 6.3 1.8 1.9 3.5 4 4.9 6.3 1.3 1.9 2.4 4.1 3.3 6.3 0.8 2.1 1.5 4.1 2.1 6.3 0.5 2.1 0.8 4.1 0.9 6.3-0.6 1-0.6 1.9-0.6 2.8z" fill="none"/>
		<radialGradient id="au" cx="304.8" cy="590.21" r="36.5" gradientTransform="matrix(1.1429 0 0 -1.1429 -3.0518e-5 971.43)" gradientUnits="userSpaceOnUse">
		<stop stop-color="#fff" offset=".9677"/>
		<stop stop-color="#ED1C24" offset="1"/>
	</radialGradient>
	<path d="m348.3 338.6c-23 0-41.7-18.7-41.7-41.7s18.7-41.7 41.7-41.7 41.7 18.7 41.7 41.7-18.7 41.7-41.7 41.7zm0-81c-21.6 0-39.3 17.6-39.3 39.3s17.6 39.3 39.3 39.3 39.3-17.6 39.3-39.3-17.7-39.3-39.3-39.3z" fill="url(#au)"/>
		<path d="m597.1 503.3c0 3-0.3 5.8-0.9 8.6-2.2 10.2-8 19.1-16.1 25-2.3 1.6-4.7 3.1-7.2 4.2-3.7 1.7-7.7 3-11.9 3.4h-11.2c-4.5-0.6-8.7-1.9-12.5-3.8-1.6-0.8-3.1-1.6-4.6-2.5-0.7-0.5-1.4-0.9-2.1-1.4-8.1-5.9-13.9-14.9-16.1-25-0.6-2.7-0.9-5.7-0.9-8.6 0-3 0.3-5.8 0.9-8.6 2.2-10.2 8-19.1 16.1-25 0.7-0.5 1.4-0.9 2.1-1.4 1.5-0.9 3-1.8 4.6-2.5 3.9-1.8 8-3.2 12.3-3.8h11.4c4.2 0.6 8.2 1.7 11.9 3.4 2.5 1.1 4.9 2.6 7.2 4.2 8.1 5.9 13.9 14.9 16.1 25 0.5 3 0.9 5.9 0.9 8.8z" fill="#183CEC"/>
		<path d="m597.1 503.3c0 3-0.3 5.8-0.9 8.6h-81.7c-0.6-2.7-0.9-5.7-0.9-8.6 0-3 0.3-5.8 0.9-8.6h81.7c0.5 2.8 0.9 5.7 0.9 8.6z" fill="#FFDE17"/>
		<path d="m549.9 462v82.7h-0.2c-4.5-0.6-8.7-1.9-12.5-3.8-1.6-0.8-3.1-1.6-4.6-2.5v-70.1c1.5-0.9 3-1.8 4.6-2.5 3.9-1.8 8-3.2 12.3-3.8h0.3z" fill="#FFDE17"/>
		<radialGradient id="av" cx="485.95" cy="409.6" r="36.495" gradientTransform="matrix(1.1429 0 0 -1.1429 -3.0518e-5 971.43)" gradientUnits="userSpaceOnUse">
		<stop stop-color="#fff" offset=".9677"/>
		<stop stop-color="#ED1C24" offset="1"/>
	</radialGradient>
	<path d="m596.2 494.6c-2.2-10.2-8-19.1-16.1-25-2.3-1.6-4.7-3.1-7.2-4.2-3.7-1.7-7.7-3-11.9-3.4-1.8-0.2-3.8-0.3-5.6-0.3-1.9 0-3.8 0.1-5.6 0.3h-0.1c-4.3 0.6-8.6 1.9-12.3 3.8-1.6 0.8-3.1 1.6-4.6 2.5-0.7 0.5-1.4 0.9-2.1 1.4-8.1 5.9-13.9 14.9-16.1 25-0.6 2.7-0.9 5.7-0.9 8.6 0 3 0.3 5.8 0.9 8.6 2.2 10.2 8 19.1 16.1 25 0.7 0.5 1.4 0.9 2.1 1.4 1.5 0.9 3 1.8 4.6 2.5 3.9 1.8 8.1 3.2 12.5 3.8 1.8 0.2 3.7 0.3 5.6 0.3s3.8-0.1 5.6-0.3c4.2-0.6 8.2-1.7 11.9-3.4 2.5-1.1 4.9-2.6 7.2-4.2 8.1-5.9 13.9-14.9 16.1-25 0.6-2.7 0.9-5.7 0.9-8.6s-0.5-5.9-1-8.8zm-16.1 39.2c-2.2 1.8-4.6 3.3-7.2 4.7-5.3 2.6-11.2 4.1-17.5 4.1-1.8 0-3.7-0.1-5.4-0.3-4.6-0.6-8.8-2.1-12.7-4.1-1.6-0.8-3.1-1.7-4.6-2.7-0.7-0.5-1.4-1-2.1-1.6-6.7-5.5-11.7-13.1-13.6-21.8-0.6-2.7-0.9-5.7-0.9-8.6 0-3 0.3-5.8 0.9-8.6 1.9-8.8 6.9-16.5 13.6-21.9 0.7-0.6 1.4-1 2.1-1.6 1.5-1 3-1.9 4.6-2.7 3.9-2.1 8.2-3.4 12.7-4 1.7-0.2 3.5-0.3 5.4-0.3 6.3 0 12.2 1.5 17.5 4.1 2.5 1.3 5 2.9 7.2 4.7 6.7 5.5 11.7 13.1 13.6 21.8 0.6 2.7 0.9 5.7 0.9 8.6 0 3-0.3 5.8-0.9 8.6-2 8.5-6.9 16.2-13.6 21.6z" fill="url(#av)"/>
		<path d="m491.5 516.1c-2.7 8.3-8 15.7-15 20.7-2.3 1.6-4.7 3.1-7.2 4.2-1.6 0.7-3.2 1.4-4.9 1.9h-25.1c-1.9-0.6-3.8-1.4-5.5-2.2-1.9-0.9-3.9-2.1-5.7-3.3l2.5-1.3 38.6-20h22.3z" fill="#011FA7"/>
		<path d="m491.5 490.3h-22.4l-38.6-20-2.5-1.3c1.8-1.3 3.7-2.4 5.7-3.3 1.8-0.9 3.7-1.6 5.5-2.2h25.1c1.7 0.6 3.3 1.1 4.9 1.9 2.5 1.1 4.9 2.6 7.2 4.2 7.1 5 12.5 12.4 15.1 20.7z" fill="#E20506"/>
		<path d="m438.3 503.2l-23.8 12.3-2.2 1.1c-1.5-4.2-2.3-8.8-2.3-13.5s0.8-9.3 2.3-13.5l2.2 1.1 23.8 12.5z"/>
		<path d="m493.5 503.2c0 2.9-0.3 5.6-0.8 8.3h-25l-41.4 21.5-2.4 1.3c-4.2-3.8-7.5-8.3-9.9-13.5l2.2-1.1 31.8-16.5-31.8-16.5-2.2-1.1c2.4-5.1 5.8-9.7 9.9-13.5l2.4 1.3 41.4 21.5h25c0.6 2.7 0.8 5.5 0.8 8.3z" fill="#183CEC"/>
		<path d="m438.3 503.2l-23.8 12.3-2.2 1.1c-1.5-4.2-2.3-8.8-2.3-13.5s0.8-9.3 2.3-13.5l2.2 1.1 23.8 12.5z" fill="none"/>
		<path d="m438.3 503.2l-23.8 12.3-2.2 1.1c-1.5-4.2-2.3-8.8-2.3-13.5s0.8-9.3 2.3-13.5l2.2 1.1 23.8 12.5z" fill="none"/>
			<path d="m492.7 494.9h-25l-41.4-21.5-2.4-1.3c1-0.9 2.1-1.8 3.2-2.6 0.3-0.2 0.6-0.5 0.9-0.6l2.5 1.3 38.6 20h22.4c0.6 1.6 0.9 3.2 1.2 4.7z" fill="#fff"/>
			<path d="m492.7 511.6c-0.3 1.6-0.7 3.1-1.3 4.6h-22.4l-38.6 20-2.5 1.3c-0.3-0.2-0.6-0.5-0.9-0.6-1.1-0.8-2.2-1.7-3.2-2.6l2.4-1.3 41.4-21.5h25.1v0.1z" fill="#fff"/>
			<path d="m447.9 503.2l-31.8 16.5-2.2 1.1c-0.6-1.4-1.1-2.7-1.6-4.1l2.2-1.1 23.8-12.3-23.8-12.3-2.2-1.1c0.5-1.4 1-2.7 1.6-4.1l2.2 1.1 31.8 16.3z" fill="#FFDE17"/>
			<path d="m493.5 503.2c0 2.9-0.3 5.6-0.8 8.3h-25l-41.4 21.5-2.4 1.3c-4.2-3.8-7.5-8.3-9.9-13.5l2.2-1.1 31.8-16.5-31.8-16.5-2.2-1.1c2.4-5.1 5.8-9.7 9.9-13.5l2.4 1.3 41.4 21.5h25c0.6 2.7 0.8 5.5 0.8 8.3z"/>
			<path d="m493.5 503.2c0 2.9-0.3 5.6-0.8 8.3h-25l-41.4 21.5-2.4 1.3c-4.2-3.8-7.5-8.3-9.9-13.5l2.2-1.1 31.8-16.5-31.8-16.5-2.2-1.1c2.4-5.1 5.8-9.7 9.9-13.5l2.4 1.3 41.4 21.5h25c0.6 2.7 0.8 5.5 0.8 8.3z" fill="#037100"/>
		<radialGradient id="y" cx="395.35" cy="409.69" r="36.5" gradientTransform="matrix(1.1429 0 0 -1.1429 -3.0518e-5 971.43)" gradientUnits="userSpaceOnUse">
		<stop stop-color="#fff" offset=".9677"/>
		<stop stop-color="#ED1C24" offset="1"/>
	</radialGradient>
	<path d="m492.7 494.9c-0.3-1.6-0.7-3.1-1.3-4.6-2.7-8.3-8-15.5-15-20.7-2.3-1.6-4.7-3.1-7.2-4.2-1.6-0.7-3.2-1.4-4.9-1.9-4-1.3-8.2-1.9-12.6-1.9s-8.6 0.7-12.6 1.9c-1.9 0.6-3.8 1.4-5.5 2.2-1.9 0.9-3.9 2.1-5.7 3.3-0.3 0.2-0.6 0.5-0.9 0.6-1.1 0.8-2.2 1.7-3.2 2.6-4.2 3.8-7.5 8.3-9.9 13.5-0.6 1.4-1.1 2.7-1.6 4.1-1.5 4.2-2.3 8.8-2.3 13.5s0.8 9.3 2.3 13.5c0.5 1.4 1 2.7 1.6 4.1 2.4 5.1 5.8 9.7 9.9 13.5 1 0.9 2.1 1.8 3.2 2.6 0.3 0.2 0.6 0.5 0.9 0.6 1.8 1.3 3.7 2.4 5.7 3.3 1.8 0.9 3.7 1.6 5.5 2.2 4 1.3 8.2 1.9 12.6 1.9s8.6-0.7 12.6-1.9c1.7-0.6 3.3-1.1 4.9-1.9 2.5-1.1 4.9-2.6 7.2-4.2 7-5.1 12.2-12.3 15-20.7 0.5-1.5 0.9-3.1 1.3-4.6 0.6-2.6 0.8-5.5 0.8-8.3 0-3-0.2-5.8-0.8-8.5zm-3.7 21.2c-2.4 7-6.7 13-12.3 17.6-2.2 1.8-4.6 3.3-7.2 4.7-5.3 2.6-11.2 4.1-17.5 4.1-6.5 0-12.7-1.6-18.2-4.5-1.1-0.6-2.2-1.3-3.2-1.8-1.1-0.8-2.3-1.6-3.4-2.4-0.2-0.2-0.6-0.5-0.8-0.7-4.2-3.7-7.8-8.2-10.2-13.4-0.6-1.4-1.1-2.7-1.6-4.1-1.3-3.9-1.9-8-1.9-12.3s0.7-8.5 1.9-12.3c0.5-1.4 1-2.7 1.6-4.1 2.4-5.1 5.8-9.7 10.2-13.4 0.2-0.2 0.6-0.5 0.8-0.7 1-0.9 2.2-1.7 3.4-2.4 1-0.7 2.1-1.3 3.2-1.8 5.4-2.9 11.5-4.5 18.2-4.5 6.3 0 12.2 1.5 17.5 4.1 2.5 1.3 5 2.9 7.2 4.7 5.6 4.6 9.9 10.6 12.3 17.6 0.6 1.5 0.9 3.1 1.3 4.6 0.6 2.6 0.9 5.5 0.9 8.3s-0.3 5.6-0.9 8.3c-0.4 1.3-0.9 2.9-1.3 4.4z" fill="url(#y)"/>
		<path d="m390.1 503.2c0 2.7-0.2 5.5-0.8 8.1-0.2 1.1-0.5 2.2-0.8 3.3-0.1 0.5-0.2 0.9-0.5 1.4-0.5 1.4-0.9 2.6-1.5 4s-1.3 2.6-1.9 3.9c-1.3 2.2-2.7 4.3-4.3 6.2-2.2 2.5-4.6 4.8-7.2 6.7-2.3 1.6-4.7 3.1-7.2 4.2-1.6 0.7-3.2 1.4-4.9 1.9-1 0.3-2.2 0.7-3.2 0.9-0.9 0.2-1.9 0.5-2.9 0.6h-14.4v-0.2c-1.1-0.2-2.2-0.5-3.2-0.7-2.5-0.7-4.8-1.6-7.1-2.6-2.3-1.1-4.6-2.4-6.6-4-2.4-1.7-4.6-3.8-6.5-5.9-0.9-1-1.7-1.9-2.4-3.1-0.9-1.1-1.7-2.4-2.4-3.7-1.4-2.3-2.4-4.7-3.3-7.2-0.2-0.8-0.6-1.5-0.7-2.3-0.3-1-0.6-2.2-0.8-3.3-0.6-2.6-0.8-5.4-0.8-8.1 0-3.1 0.3-6.2 1-9.1 0.2-1.1 0.6-2.2 0.9-3.3 0.1-0.5 0.3-0.9 0.5-1.4 0.5-1.3 0.9-2.5 1.5-3.8 0.6-1.4 1.3-2.6 2.1-3.9 1.4-2.3 2.9-4.3 4.6-6.3 1.9-2.2 4.1-4.2 6.5-5.9 2.1-1.5 4.2-2.9 6.6-4 2.3-1.1 4.7-2.1 7.2-2.6 1-0.3 2.1-0.6 3.2-0.7v-0.1h17.1v0.5c1.1 0.2 2.3 0.6 3.4 0.9 1.6 0.6 3.2 1.1 4.7 1.8 2.5 1.1 4.9 2.6 7.2 4.2 2.6 1.9 5 4.2 7.2 6.7 0.7 0.8 1.4 1.7 2.1 2.6 0.8 1.1 1.6 2.4 2.4 3.7 1.4 2.4 2.5 5 3.4 7.8 0.1 0.1 0.1 0.3 0.1 0.5 0.3 1 0.6 2.2 0.9 3.3 0.5 2.8 0.8 5.9 0.8 9z" fill="#0A118A"/>
		<path d="m361.2 463.4v79.4c-1 0.3-2.2 0.7-3.2 0.9-0.9 0.2-1.9 0.5-2.9 0.6h-14.4v-0.2c-1.1-0.2-2.2-0.5-3.2-0.7v-80.2c1-0.3 2.1-0.6 3.2-0.7v-0.1h17.3v0.5c0.9-0.1 2.1 0.2 3.2 0.5z" fill="#fff"/>
			<path d="m385.9 514.8l2.2 1.3c-0.5 1.4-0.9 2.6-1.5 4s-1.3 2.6-1.9 3.9c-1.3 2.2-2.7 4.3-4.3 6.2l-2.2-1.3-17-9.7-3.3-1.8-4.8-2.7-3.8-2.2-3.9-2.2-4.5-2.5-3.7-2.1-4.3-2.5-16-9.1-5.7-3.3-0.2-0.1-2.2-1.3c0.5-1.3 0.9-2.5 1.5-3.8 0.6-1.4 1.3-2.6 2.1-3.9 1.4-2.3 2.9-4.3 4.6-6.3l2.2 1.3 18.1 10.3 3.2 1.8 3.3 1.9 5.4 3.1 3.3 1.9 4.5 2.5 4 2.3 4.5 2.5 14.3 8.1 5.7 3.3 0.4 0.4z" fill="#fff"/>
			<path d="m384.6 482.6c1.4 2.4 2.5 5 3.4 7.8l-0.8 0.5-1.4 0.8-4.3 2.5-16 9.1-4.2 2.4-0.2 0.1-4.2 2.4-7.7 4.3-3.8 2.2-5 2.9-3.2 1.8-18.1 10.3-2.1 1.3c-0.9-1-1.7-1.9-2.4-3.1-0.9-1.1-1.7-2.4-2.4-3.7-1.4-2.3-2.4-4.7-3.3-7.2l2.2-1.3 1.8-1 5.7-3.3 14.3-8.1 4.1-2.3 0.2-0.1 4.1-2.4 7.8-4.5 5.4-3.1 3.1-1.7 3.3-1.9 16.9-9.6 2.2-1.3c0.7 0.8 1.4 1.7 2.1 2.6 1 1.1 1.8 2.4 2.5 3.6z" fill="#fff"/>
			<path d="m341.5 498.4l-4.1 2.4-0.2 0.1-11.9-6.7-5.7-3.3-6.9-3.9-2.2-1.3c0.6-1.4 1.3-2.6 2.1-3.9l2.2 1.3 13.6 7.8 5.7 3.3 3.3 1.9 4.1 2.3z" fill="#ED1C24"/>
			<path d="m384.4 518.8l2.2 1.3c-0.6 1.4-1.3 2.6-1.9 3.9l-2.2-1.3-14.2-8-5.7-3.3-1.5-0.8-4.1-2.4 4.2-2.4 0.2-0.1 10.1 5.7 5.7 3.3 7.2 4.1z" fill="#ED1C24"/>
			<path d="m345.4 510.3l-4.9 2.7-2.7 1.6-0.5 0.2-20.6 11.8-2.2 1.3c-0.9-1.1-1.7-2.4-2.4-3.7l2.2-1.3 14.5-8.3 5.7-3.3 2.6-1.5 3.7-2.1 4.6 2.6z" fill="#ED1C24"/>
			<path d="m384.6 482.6l-2.2 1.3-12.2 7-5.7 3.3-3.4 1.9-4 2.3-4.5-2.5 5.1-3 3.3-1.9 0.3-0.2 18.7-10.6 2.2-1.3c0.9 1.2 1.7 2.5 2.4 3.7z" fill="#ED1C24"/>
		<path d="m389.1 494.1c0.7 3 1 5.9 1 9.1 0 2.7-0.2 5.5-0.8 8.1-0.2 1.1-0.5 2.2-0.8 3.3h-80.3c-0.3-1-0.6-2.2-0.8-3.3-0.6-2.6-0.8-5.4-0.8-8.1 0-3.1 0.3-6.2 1-9.1 0.2-1.1 0.6-2.2 0.9-3.3h79.7c0.3 1.1 0.7 2.2 0.9 3.3z" fill="#fff"/>
		<path d="m390.1 503.2c0 2.7-0.2 5.5-0.8 8.1h-31.5v32.4c-0.9 0.2-1.9 0.5-2.9 0.6h-14.4v-33.1h-33.1c-0.6-2.6-0.8-5.4-0.8-8.1 0-3.1 0.3-6.2 1-9.1h32.9v-32h17.3v32h31.3c0.7 3 1 6.1 1 9.2z" fill="#ED1C24"/>
		<radialGradient id="z" cx="304.8" cy="409.69" r="36.53" gradientTransform="matrix(1.1429 0 0 -1.1429 -3.0518e-5 971.43)" gradientUnits="userSpaceOnUse">
		<stop stop-color="#fff" offset=".9677"/>
		<stop stop-color="#ED1C24" offset="1"/>
	</radialGradient>
	<path d="m389.1 494.1c-0.2-1.1-0.6-2.2-0.9-3.3 0-0.1-0.1-0.3-0.1-0.5-0.9-2.7-2.1-5.3-3.4-7.8-0.7-1.3-1.5-2.5-2.4-3.7-0.7-0.9-1.4-1.8-2.1-2.6-2.2-2.5-4.6-4.8-7.2-6.7-2.3-1.6-4.7-3.1-7.2-4.2-1.5-0.7-3.1-1.4-4.7-1.8-1.1-0.3-2.3-0.7-3.4-0.9-0.8-0.2-1.6-0.3-2.3-0.5h-0.1c-2.3-0.3-4.6-0.6-7-0.6s-4.7 0.2-7 0.6h-0.1c-0.2 0-0.5 0.1-0.7 0.1-1 0.2-2.2 0.5-3.2 0.7-2.5 0.7-4.9 1.6-7.2 2.6-2.3 1.1-4.6 2.4-6.6 4-2.4 1.7-4.6 3.8-6.5 5.9-1.7 1.9-3.2 4-4.6 6.3-0.8 1.3-1.5 2.5-2.1 3.9-0.6 1.3-1 2.5-1.5 3.8-0.1 0.5-0.3 0.9-0.5 1.4-0.3 1-0.6 2.2-0.9 3.3-0.7 3-1 5.9-1 9.1 0 2.7 0.2 5.5 0.8 8.1 0.2 1.1 0.5 2.2 0.8 3.3 0.2 0.8 0.5 1.6 0.7 2.3 0.9 2.5 1.9 4.9 3.3 7.2 0.7 1.3 1.5 2.5 2.4 3.7 0.8 1 1.6 2.1 2.4 3.1 1.9 2.2 4.1 4.2 6.5 5.9 2.1 1.5 4.2 2.9 6.6 4 2.3 1.1 4.7 1.9 7.1 2.6 1 0.3 2.2 0.6 3.2 0.7 0.5 0.1 0.8 0.1 1.3 0.2 2.2 0.3 4.3 0.6 6.5 0.6s4.5-0.2 6.5-0.6c1-0.1 1.9-0.3 2.9-0.6 1.1-0.2 2.2-0.6 3.2-0.9 1.7-0.6 3.3-1.1 4.9-1.9 2.5-1.1 4.9-2.6 7.2-4.2 2.6-1.9 5-4.2 7.2-6.7 1.6-1.9 3.1-4 4.3-6.2 0.7-1.3 1.4-2.5 1.9-3.9 0.6-1.3 1-2.6 1.5-4 0.1-0.5 0.3-0.9 0.5-1.4 0.3-1 0.6-2.2 0.8-3.3 0.6-2.6 0.8-5.4 0.8-8.1 0.4-3 0.1-6.1-0.6-9zm-3.2 20.5v0.1c-0.5 1.4-0.9 2.7-1.5 4-0.6 1.4-1.3 2.6-1.9 3.9-1.3 2.2-2.7 4.2-4.3 6.2-1.5 1.7-3.2 3.3-5 4.8-2.2 1.8-4.6 3.3-7.2 4.7-1.6 0.8-3.2 1.5-4.8 2.1-1 0.3-2.2 0.7-3.2 0.9-3 0.8-6.2 1.1-9.5 1.1-2.6 0-5.3-0.2-7.8-0.8-1.1-0.2-2.2-0.5-3.2-0.8-2.5-0.7-4.8-1.7-7.1-2.9-2.4-1.3-4.6-2.6-6.6-4.3-1.6-1.3-3-2.6-4.3-4.1-0.9-0.9-1.7-1.9-2.5-3-0.9-1.1-1.7-2.4-2.4-3.7-1.4-2.3-2.4-4.7-3.3-7.2-0.1-0.3-0.2-0.7-0.3-1-0.3-1-0.6-2.2-0.8-3.3-0.6-2.6-0.8-5.4-0.8-8.1 0-3.1 0.3-6.2 1-9.1 0.2-1.1 0.6-2.2 0.9-3.3v-0.1c0.5-1.3 0.9-2.5 1.5-3.8 0.6-1.4 1.3-2.6 2.1-3.9 1.4-2.3 2.9-4.3 4.7-6.3 1.4-1.5 2.7-2.9 4.3-4.1 2.1-1.6 4.2-3.1 6.6-4.3 2.3-1.1 4.7-2.2 7.2-2.9 1-0.3 2.1-0.6 3.2-0.8 2.5-0.5 5.1-0.8 7.8-0.8 3.2 0 6.4 0.3 9.5 1.1 1.1 0.2 2.3 0.6 3.4 1 1.6 0.6 3.2 1.3 4.7 1.9 2.5 1.3 5 2.9 7.2 4.7 1.8 1.5 3.4 3.1 5 4.8 0.7 0.8 1.5 1.7 2.1 2.6 0.8 1.1 1.6 2.4 2.4 3.7 1.3 2.2 2.3 4.6 3.1 7 0.1 0.2 0.2 0.6 0.2 0.8 0.2 0.8 0.5 1.6 0.7 2.5 0.7 3 1 5.9 1 9.1 0 2.7-0.3 5.5-0.8 8.1-0.6 1.4-1 2.5-1.3 3.5z" fill="url(#z)"/>
		<path d="m286.5 503.2c0 13.8-6.7 26.1-17 33.6-2.3 1.6-4.7 3.1-7.2 4.2-3.8 1.7-7.9 3-12.1 3.5h-10.9c-4.5-0.6-8.8-1.9-12.7-3.8-2.3-1.1-4.6-2.4-6.6-4-10.3-7.7-17-19.9-17-33.6 0-13.8 6.7-26.1 17-33.6 2.1-1.5 4.2-2.9 6.6-4 3.9-1.8 8-3.2 12.3-3.8h11.5c4.1 0.6 8.1 1.7 11.8 3.4 2.5 1.1 4.9 2.6 7.2 4.2 10.3 7.9 17.1 20.1 17.1 33.9z" fill="#06086D"/>
					<radialGradient id="aa" cx="227.98" cy="385.68" r="3.9089" gradientTransform="matrix(1.1429 0 0 -1.1429 -3.0518e-5 971.43)" gradientUnits="userSpaceOnUse">
					<stop stop-color="#FFBE15" offset="0"/>
					<stop stop-color="#FEC214" offset=".2533"/>
					<stop stop-color="#FDCD10" offset=".4962"/>
					<stop stop-color="#FAE10A" offset=".735"/>
					<stop stop-color="#F6FC01" offset=".9699"/>
					<stop stop-color="#F6FF00" offset=".9951"/>
				</radialGradient>
				<polygon points="260.5 526.3 261.7 529.6 265.1 529.6 262.3 531.7 263.4 535 260.5 532.9 257.8 535 258.8 531.7 255.9 529.6 259.5 529.6" fill="url(#aa)"/>
					<radialGradient id="ab" cx="238" cy="395.89" r="3.9111" gradientTransform="matrix(1.1429 0 0 -1.1429 -3.0518e-5 971.43)" gradientUnits="userSpaceOnUse">
					<stop stop-color="#FFBE15" offset="0"/>
					<stop stop-color="#FEC214" offset=".2533"/>
					<stop stop-color="#FDCD10" offset=".4962"/>
					<stop stop-color="#FAE10A" offset=".735"/>
					<stop stop-color="#F6FC01" offset=".9699"/>
					<stop stop-color="#F6FF00" offset=".9951"/>
				</radialGradient>
				<polygon points="271.9 514.6 273.1 518 276.6 518 273.8 520 274.8 523.3 271.9 521.3 269.2 523.3 270.2 520 267.4 518 270.9 518" fill="url(#ab)"/>
					<radialGradient id="ac" cx="241.81" cy="409.69" r="3.9069" gradientTransform="matrix(1.1429 0 0 -1.1429 -3.0518e-5 971.43)" gradientUnits="userSpaceOnUse">
					<stop stop-color="#FFBE15" offset="0"/>
					<stop stop-color="#FEC214" offset=".2533"/>
					<stop stop-color="#FDCD10" offset=".4962"/>
					<stop stop-color="#FAE10A" offset=".735"/>
					<stop stop-color="#F6FC01" offset=".9699"/>
					<stop stop-color="#F6FF00" offset=".9951"/>
				</radialGradient>
				<polygon points="276.4 498.9 277.4 502.2 281 502.2 278.1 504.2 279.1 507.6 276.4 505.5 273.5 507.6 274.6 504.2 271.8 502.2 275.3 502.2" fill="url(#ac)"/>
					<radialGradient id="ad" cx="238.02" cy="423.79" r="3.9066" gradientTransform="matrix(1.1429 0 0 -1.1429 -3.0518e-5 971.43)" gradientUnits="userSpaceOnUse">
					<stop stop-color="#FFBE15" offset="0"/>
					<stop stop-color="#FEC214" offset=".2533"/>
					<stop stop-color="#FDCD10" offset=".4962"/>
					<stop stop-color="#FAE10A" offset=".735"/>
					<stop stop-color="#F6FC01" offset=".9699"/>
					<stop stop-color="#F6FF00" offset=".9951"/>
				</radialGradient>
				<polygon points="272.1 482.8 273.1 486.1 276.6 486.1 273.8 488.1 274.8 491.4 272.1 489.4 269.2 491.4 270.2 488.1 267.5 486.1 270.9 486.1" fill="url(#ad)"/>
					<radialGradient id="ae" cx="227.8" cy="433.8" r="3.9085" gradientTransform="matrix(1.1429 0 0 -1.1429 -3.0518e-5 971.43)" gradientUnits="userSpaceOnUse">
					<stop stop-color="#FFBE15" offset="0"/>
					<stop stop-color="#FEC214" offset=".2533"/>
					<stop stop-color="#FDCD10" offset=".4962"/>
					<stop stop-color="#FAE10A" offset=".735"/>
					<stop stop-color="#F6FC01" offset=".9699"/>
					<stop stop-color="#F6FF00" offset=".9951"/>
				</radialGradient>
				<polygon points="260.3 471.3 261.4 474.6 265 474.6 262.1 476.7 263.1 480 260.3 478 257.5 480 258.6 476.7 255.7 474.6 259.3 474.6" fill="url(#ae)"/>
					<radialGradient id="af" cx="214.01" cy="437.61" r="3.9105" gradientTransform="matrix(1.1429 0 0 -1.1429 -3.0518e-5 971.43)" gradientUnits="userSpaceOnUse">
					<stop stop-color="#FFBE15" offset="0"/>
					<stop stop-color="#FEC214" offset=".2533"/>
					<stop stop-color="#FDCD10" offset=".4962"/>
					<stop stop-color="#FAE10A" offset=".735"/>
					<stop stop-color="#F6FC01" offset=".9699"/>
					<stop stop-color="#F6FF00" offset=".9951"/>
				</radialGradient>
				<polygon points="244.6 467 245.7 470.3 249.2 470.3 246.3 472.4 247.4 475.7 244.6 473.6 241.8 475.7 242.8 472.4 240.1 470.3 243.5 470.3" fill="url(#af)"/>
					<radialGradient id="ag" cx="214.01" cy="381.79" r="3.9106" gradientTransform="matrix(1.1429 0 0 -1.1429 -3.0518e-5 971.43)" gradientUnits="userSpaceOnUse">
					<stop stop-color="#FFBE15" offset="0"/>
					<stop stop-color="#FEC214" offset=".2533"/>
					<stop stop-color="#FDCD10" offset=".4962"/>
					<stop stop-color="#FAE10A" offset=".735"/>
					<stop stop-color="#F6FC01" offset=".9699"/>
					<stop stop-color="#F6FF00" offset=".9951"/>
				</radialGradient>
				<polygon points="244.6 530.8 245.7 534.1 249.2 534.1 246.3 536.1 247.4 539.4 244.6 537.4 241.8 539.4 242.8 536.1 240.1 534.1 243.5 534.1" fill="url(#ag)"/>
					<radialGradient id="ah" cx="200.04" cy="385.68" r="3.9088" gradientTransform="matrix(1.1429 0 0 -1.1429 -3.0518e-5 971.43)" gradientUnits="userSpaceOnUse">
					<stop stop-color="#FFBE15" offset="0"/>
					<stop stop-color="#FEC214" offset=".2533"/>
					<stop stop-color="#FDCD10" offset=".4962"/>
					<stop stop-color="#FAE10A" offset=".735"/>
					<stop stop-color="#F6FC01" offset=".9699"/>
					<stop stop-color="#F6FF00" offset=".9951"/>
				</radialGradient>
				<polygon points="228.6 526.3 227.5 529.6 224.1 529.6 226.9 531.7 225.8 535 228.6 532.9 231.5 535 230.3 531.7 233.2 529.6 229.7 529.6" fill="url(#ah)"/>
					<radialGradient id="aj" cx="190.02" cy="395.89" r="3.9152" gradientTransform="matrix(1.1429 0 0 -1.1429 -3.0518e-5 971.43)" gradientUnits="userSpaceOnUse">
					<stop stop-color="#FFBE15" offset="0"/>
					<stop stop-color="#FEC214" offset=".2533"/>
					<stop stop-color="#FDCD10" offset=".4962"/>
					<stop stop-color="#FAE10A" offset=".735"/>
					<stop stop-color="#F6FC01" offset=".9699"/>
					<stop stop-color="#F6FF00" offset=".9951"/>
				</radialGradient>
				<polygon points="217.2 514.6 216.1 518 212.6 518 215.4 520 214.3 523.3 217.2 521.3 219.9 523.3 218.9 520 221.8 518 218.2 518" fill="url(#aj)"/>
					<radialGradient id="ak" cx="186.21" cy="409.69" r="3.9069" gradientTransform="matrix(1.1429 0 0 -1.1429 -3.0518e-5 971.43)" gradientUnits="userSpaceOnUse">
					<stop stop-color="#FFBE15" offset="0"/>
					<stop stop-color="#FEC214" offset=".2533"/>
					<stop stop-color="#FDCD10" offset=".4962"/>
					<stop stop-color="#FAE10A" offset=".735"/>
					<stop stop-color="#F6FC01" offset=".9699"/>
					<stop stop-color="#F6FF00" offset=".9951"/>
				</radialGradient>
				<polygon points="212.9 498.9 211.7 502.2 208.3 502.2 211 504.2 210 507.6 212.9 505.5 215.6 507.6 214.6 504.2 217.4 502.2 213.9 502.2" fill="url(#ak)"/>
					<radialGradient id="al" cx="190" cy="423.79" r="3.9075" gradientTransform="matrix(1.1429 0 0 -1.1429 -3.0518e-5 971.43)" gradientUnits="userSpaceOnUse">
					<stop stop-color="#FFBE15" offset="0"/>
					<stop stop-color="#FEC214" offset=".2533"/>
					<stop stop-color="#FDCD10" offset=".4962"/>
					<stop stop-color="#FAE10A" offset=".735"/>
					<stop stop-color="#F6FC01" offset=".9699"/>
					<stop stop-color="#F6FF00" offset=".9951"/>
				</radialGradient>
				<polygon points="217.2 482.8 216.1 486.1 212.5 486.1 215.4 488.1 214.3 491.4 217.2 489.4 219.9 491.4 218.9 488.1 221.8 486.1 218.2 486.1" fill="url(#al)"/>
					<radialGradient id="am" cx="200.22" cy="433.8" r="3.9121" gradientTransform="matrix(1.1429 0 0 -1.1429 -3.0518e-5 971.43)" gradientUnits="userSpaceOnUse">
					<stop stop-color="#FFBE15" offset="0"/>
					<stop stop-color="#FEC214" offset=".2533"/>
					<stop stop-color="#FDCD10" offset=".4962"/>
					<stop stop-color="#FAE10A" offset=".735"/>
					<stop stop-color="#F6FC01" offset=".9699"/>
					<stop stop-color="#F6FF00" offset=".9951"/>
				</radialGradient>
				<polygon points="228.9 471.3 227.7 474.6 224.3 474.6 227 476.7 226 480 228.9 478 231.6 480 230.6 476.7 233.4 474.6 229.9 474.6" fill="url(#am)"/>
		<radialGradient id="an" cx="214.15" cy="409.69" r="36.5" gradientTransform="matrix(1.1429 0 0 -1.1429 -3.0518e-5 971.43)" gradientUnits="userSpaceOnUse">
		<stop stop-color="#fff" offset=".9677"/>
		<stop stop-color="#ED1C24" offset="1"/>
	</radialGradient>
	<path d="m269.4 469.5c-2.3-1.6-4.7-3.1-7.2-4.2-3.7-1.7-7.7-2.9-11.8-3.4-1.9-0.2-3.8-0.3-5.7-0.3s-3.9 0.1-5.7 0.3c-4.3 0.6-8.6 1.9-12.3 3.8-2.3 1.1-4.6 2.4-6.6 4-10.3 7.7-17 19.9-17 33.6 0 13.8 6.7 26.1 17 33.6 2.1 1.5 4.2 2.9 6.6 4 3.9 1.9 8.2 3.2 12.7 3.8 1.8 0.2 3.5 0.3 5.4 0.3s3.7-0.1 5.4-0.3c4.2-0.6 8.3-1.7 12.1-3.5 2.5-1.1 4.9-2.6 7.2-4.2 10.3-7.7 17-19.9 17-33.6 0-14-6.8-26.2-17.1-33.9zm0 64.2c-2.2 1.8-4.6 3.3-7.2 4.7-5.3 2.6-11.2 4.1-17.5 4.1-6.5 0-12.7-1.6-18.2-4.5-2.4-1.3-4.6-2.6-6.6-4.3-8.9-7.2-14.5-18.2-14.5-30.5s5.7-23.3 14.5-30.5c2.1-1.6 4.2-3.1 6.6-4.3 5.4-2.9 11.5-4.5 18.2-4.5 6.3 0 12.2 1.5 17.5 4.1 2.5 1.3 5 2.9 7.2 4.7 8.9 7.2 14.5 18.2 14.5 30.5 0 12.2-5.6 23.3-14.5 30.5z" fill="url(#an)"/>
</svg>
